<?xml version="1.0" encoding="UTF-8" standalone="no"?>
<!-- Created with Inkscape (http://www.inkscape.org/) -->

<svg
   xmlns:dc="http://purl.org/dc/elements/1.1/"
   xmlns:cc="http://creativecommons.org/ns#"
   xmlns:rdf="http://www.w3.org/1999/02/22-rdf-syntax-ns#"
   xmlns:svg="http://www.w3.org/2000/svg"
   xmlns="http://www.w3.org/2000/svg"
   xmlns:sodipodi="http://sodipodi.sourceforge.net/DTD/sodipodi-0.dtd"
   xmlns:inkscape="http://www.inkscape.org/namespaces/inkscape"
   id="svg2"
   version="1.1"
   inkscape:version="0.92.3 (2405546, 2018-03-11)"
   xml:space="preserve"
   width="1464.2457"
   height="1299.6608"
   viewBox="0 0 1464.2459 1299.6607"
   sodipodi:docname="lexigen.svg"
   inkscape:export-filename="/home/eric/data/WORK/PROJECT/TOOL/LEXIGEN/LOGO/lexigen.png"
   inkscape:export-xdpi="90"
   inkscape:export-ydpi="90"
   style="enable-background:new"><metadata
     id="metadata8"><rdf:RDF><cc:Work
         rdf:about=""><dc:format>image/svg+xml</dc:format><dc:type
           rdf:resource="http://purl.org/dc/dcmitype/StillImage" /><dc:title></dc:title></cc:Work></rdf:RDF></metadata><defs
     id="defs6" /><sodipodi:namedview
     pagecolor="#ffffff"
     bordercolor="#666666"
     borderopacity="1"
     objecttolerance="10"
     gridtolerance="10"
     guidetolerance="10"
     inkscape:pageopacity="0"
     inkscape:pageshadow="2"
     inkscape:window-width="1920"
     inkscape:window-height="1056"
     id="namedview4"
     showgrid="false"
     inkscape:zoom="0.31466666"
     inkscape:cx="83.04459"
     inkscape:cy="634.35931"
     inkscape:window-x="0"
     inkscape:window-y="0"
     inkscape:window-maximized="1"
     inkscape:current-layer="layer1"
     fit-margin-top="80"
     fit-margin-left="80"
     fit-margin-right="80"
     fit-margin-bottom="80"
     showguides="false"><inkscape:grid
       type="xygrid"
       id="grid3748"
       spacingx="15.000001"
       spacingy="30"
       originx="-175.01296"
       originy="-55.128737" /></sodipodi:namedview><g
     inkscape:groupmode="layer"
     id="layer1"
     inkscape:label="title"
     style="display:inline"
     transform="translate(-724.57163,-199.73514)"><text
   transform="scale(0.94703571,1.0559264)"
   style="font-variant:normal;font-weight:normal;font-stretch:normal;font-size:20.44830322px;line-height:0%;font-family:Times;-inkscape-font-specification:Times-Roman;writing-mode:lr-tb;display:inline;fill:#0075bf;fill-opacity:1;fill-rule:nonzero;stroke:none;stroke-width:1.70402539"
   id="text24"
   x="818.30524"
   y="1339.1293"><tspan
     x="818.30524"
     sodipodi:role="line"
     id="tspan28"
     y="1339.1293"
     style="font-style:normal;font-variant:normal;font-weight:normal;font-stretch:normal;font-size:363.52539062px;line-height:1.25;font-family:Ubuntu;-inkscape-font-specification:Ubuntu;fill:#0075bf;fill-opacity:1;stroke-width:1.70402539"><tspan
   style="font-style:normal;font-variant:normal;font-weight:normal;font-stretch:normal;font-family:Ubuntu;-inkscape-font-specification:Ubuntu;fill:#ff8301;fill-opacity:1;stroke-width:1.70402539"
   id="tspan1230">LEXI</tspan>GEN</tspan></text>















<g
   id="g830"
   transform="matrix(1.8208217,0,0,1.8208217,978.51838,192.45405)">
</g><g
   id="g832"
   transform="matrix(1.8208217,0,0,1.8208217,978.51838,192.45405)">
</g><g
   id="g834"
   transform="matrix(1.8208217,0,0,1.8208217,978.51838,192.45405)">
</g><g
   id="g836"
   transform="matrix(1.8208217,0,0,1.8208217,978.51838,192.45405)">
</g><g
   id="g838"
   transform="matrix(1.8208217,0,0,1.8208217,978.51838,192.45405)">
</g><g
   id="g840"
   transform="matrix(1.8208217,0,0,1.8208217,978.51838,192.45405)">
</g><g
   id="g842"
   transform="matrix(1.8208217,0,0,1.8208217,978.51838,192.45405)">
</g><g
   id="g844"
   transform="matrix(1.8208217,0,0,1.8208217,978.51838,192.45405)">
</g><g
   id="g846"
   transform="matrix(1.8208217,0,0,1.8208217,978.51838,192.45405)">
</g><g
   id="g848"
   transform="matrix(1.8208217,0,0,1.8208217,978.51838,192.45405)">
</g><g
   id="g850"
   transform="matrix(1.8208217,0,0,1.8208217,978.51838,192.45405)">
</g><g
   id="g852"
   transform="matrix(1.8208217,0,0,1.8208217,978.51838,192.45405)">
</g><g
   id="g854"
   transform="matrix(1.8208217,0,0,1.8208217,978.51838,192.45405)">
</g><g
   id="g856"
   transform="matrix(1.8208217,0,0,1.8208217,978.51838,192.45405)">
</g><g
   id="g858"
   transform="matrix(1.8208217,0,0,1.8208217,978.51838,192.45405)">
</g><g
   id="g954"
   transform="translate(12.045757)"><path
     id="path822"
     d="m 1910.7791,975.28357 v 62.15013 c -78.1642,0 -185.4161,-69.71201 -298.7386,-69.71201 -66.7713,0 -108.6193,27.55268 -133.7685,55.08711 h -33.6233 l -41.4346,-193.03984 z"
     style="fill:#0075bf;fill-opacity:1;stroke-width:1.82082164"
     inkscape:connector-curvature="0" /><path
     id="path824"
     d="m 1444.6487,829.76896 v 193.03984 h -33.6233 c -25.151,-27.53261 -66.9989,-55.08711 -133.7684,-55.08711 -113.3207,0 -220.5726,69.71201 -298.73862,69.71201 v -62.15013 z"
     style="fill:#0075bf;fill-opacity:1;stroke-width:1.82082164"
     inkscape:connector-curvature="0" /><path
     id="path826"
     d="m 1910.7791,349.44712 v 625.83645 c -78.1642,0 -185.4161,-69.71198 -298.7386,-69.71198 -66.7713,0 -108.6193,27.55267 -133.7685,55.08714 h -33.6233 l -82.8674,-285.36464 82.8674,-285.36646 c 0,0 33.8509,-110.19249 167.3918,-110.19249 113.3225,0 220.5744,69.71198 298.7386,69.71198 z"
     style="fill:#b9e2ff;fill-opacity:1;stroke-width:1.82082164"
     inkscape:connector-curvature="0" /><path
     id="path828"
     d="M 1444.6487,389.92763 V 960.6569 h -33.6233 c -25.151,-27.55267 -66.9989,-55.08714 -133.7684,-55.08714 -113.3207,0 -220.5726,69.71198 -298.73862,69.71198 V 349.44712 c 78.16422,0 185.41612,-69.71198 298.73862,-69.71198 133.5408,0 167.3917,110.19249 167.3917,110.19249 z"
     style="fill:#d0edff;fill-opacity:1;stroke-width:1.82082164"
     inkscape:connector-curvature="0" /><text
     y="726.12903"
     x="1105.3838"
     id="text24-4"
     style="font-variant:normal;font-weight:normal;font-stretch:normal;font-size:20.44830322px;line-height:0%;font-family:Times;-inkscape-font-specification:Times-Roman;writing-mode:lr-tb;display:inline;fill:#0075bf;fill-opacity:1;fill-rule:nonzero;stroke:none;stroke-width:1.70402539;enable-background:new"
     transform="scale(0.94703571,1.0559264)"><tspan
       style="font-style:normal;font-variant:normal;font-weight:normal;font-stretch:normal;font-size:363.52539062px;line-height:1.25;font-family:Ubuntu;-inkscape-font-specification:Ubuntu;fill:#0075bf;fill-opacity:1;stroke-width:1.70402539"
       y="726.12903"
       id="tspan28-3"
       sodipodi:role="line"
       x="1105.3838">あ</tspan></text>
<text
     y="738.42078"
     x="1613.3181"
     id="text24-4-6"
     style="font-variant:normal;font-weight:normal;font-stretch:normal;font-size:24.51422119px;line-height:0%;font-family:Times;-inkscape-font-specification:Times-Roman;writing-mode:lr-tb;display:inline;fill:#0075bf;fill-opacity:1;fill-rule:nonzero;stroke:none;stroke-width:2.04285169;enable-background:new"
     transform="scale(0.94703571,1.0559264)"><tspan
       style="font-style:normal;font-variant:normal;font-weight:normal;font-stretch:normal;font-size:435.80838013px;line-height:1.25;font-family:Birdman;-inkscape-font-specification:Birdman;fill:#0075bf;fill-opacity:1;stroke-width:2.04285169"
       y="738.42078"
       id="tspan28-3-9"
       sodipodi:role="line"
       x="1613.3181">A</tspan></text>
</g></g></svg>